<?xml version="1.0" encoding="utf-8"?>
<!-- Generator: Adobe Illustrator 27.9.3, SVG Export Plug-In . SVG Version: 9.03 Build 53313)  -->
<svg version="1.1" id="レイヤー_1" xmlns="http://www.w3.org/2000/svg" xmlns:xlink="http://www.w3.org/1999/xlink" x="0px"
	 y="0px" viewBox="0 0 250 250" style="enable-background:new 0 0 250 250;" xml:space="preserve">
<style type="text/css">
	.st0{fill:#FFFFFF;}
	.st1{font-family:'NotoSansCJKjp-Bold-90ms-RKSJ-H';}
	.st2{font-size:12px;}
</style>
<g>
	<g>
		<path class="st0" d="M125,2c32.85,0,63.74,12.79,86.97,36.03C235.21,61.26,248,92.15,248,125s-12.79,63.74-36.03,86.97
			C188.74,235.21,157.85,248,125,248s-63.74-12.79-86.97-36.03C14.79,188.74,2,157.85,2,125s12.79-63.74,36.03-86.97
			C61.26,14.79,92.15,2,125,2 M125,0C55.96,0,0,55.96,0,125s55.96,125,125,125s125-55.96,125-125S194.04,0,125,0L125,0z"/>
	</g>
	<text transform="matrix(1 0 0 1 53.0005 76.7236)" class="st0 st1 st2">オンラインストアで販売中</text>
	<g>
		<path class="st0" d="M154.14,106l-4.55,17.64H78.3l13.26,46.03h46.15l-1.66,6.45H94.8v6.79h46.51l18.1-70.12h12.3V106H154.14z
			 M130.99,162.89v-13.01h11.83l-3.36,13.01H130.99z M147.84,130.43l-3.27,12.67h-13.58v-12.67H147.84z M124.2,149.88v13.01h-13.39
			v-13.01H124.2z M124.2,130.43v12.67h-13.39v-12.67H124.2z M104.02,130.43v12.67H90.97l-3.65-12.67H104.02z M104.02,149.88v13.01
			h-7.35l-3.75-13.01H104.02z"/>
		<path class="st0" d="M101.28,185.77c-5.03,0-9.13,4.09-9.13,9.13c0,5.03,4.09,9.13,9.13,9.13s9.13-4.09,9.13-9.13
			S106.31,185.77,101.28,185.77z M101.28,197.24c-1.29,0-2.34-1.05-2.34-2.34c0-1.29,1.05-2.34,2.34-2.34
			c1.29,0,2.34,1.05,2.34,2.34S102.57,197.24,101.28,197.24z"/>
		<path class="st0" d="M133.38,186.15c-5.03,0-9.13,4.09-9.13,9.13c0,5.03,4.09,9.13,9.13,9.13s9.13-4.09,9.13-9.13
			C142.51,190.24,138.42,186.15,133.38,186.15z M133.38,197.62c-1.29,0-2.34-1.05-2.34-2.34c0-1.29,1.05-2.34,2.34-2.34
			c1.29,0,2.34,1.05,2.34,2.34C135.72,196.57,134.67,197.62,133.38,197.62z"/>
	</g>
</g>
</svg>
