<?xml version="1.0" encoding="utf-8"?>
<!-- Generator: Adobe Illustrator 27.9.3, SVG Export Plug-In . SVG Version: 9.03 Build 53313)  -->
<svg version="1.1" xmlns="http://www.w3.org/2000/svg" xmlns:xlink="http://www.w3.org/1999/xlink" x="0px" y="0px"
	 viewBox="0 0 682.13 462.91" style="enable-background:new 0 0 682.13 462.91;" xml:space="preserve">
<style type="text/css">
	.st0{fill:#F7931E;}
	.st1{fill:#F4C78C;}
</style>
<g id="レイヤー_1">
	<g>
		<g>
			<path d="M98.68,313.22v99.41c0,13.26-3.61,24.43-10.83,33.52c-8.68,11.03-21.51,16.55-38.51,16.55
				c-15.61,0-28.28-5.48-37.99-16.45C3.78,437.71,0,429.08,0,420.33c0-4.65,1.56-8.26,4.68-10.83c2.77-2.29,6.07-3.44,9.89-3.44
				c4.93,0,8.57,1.81,10.93,5.41c0.48,0.76,1.49,3.26,3.02,7.5c4.02,11.24,11,16.86,20.92,16.86c8.26,0,14.02-3.54,17.28-10.62
				c1.6-3.54,2.39-7.81,2.39-12.8v-99.2c0-4.72,2.19-8.15,6.56-10.31c2.5-1.18,5.21-1.77,8.12-1.77c3.96,0,7.35,1.01,10.2,3.02
				C97.12,306.31,98.68,309.33,98.68,313.22z"/>
			<path d="M166.65,312.8v82.96c0,27.55,12,41.33,36.02,41.33c24.01,0,36.02-13.77,36.02-41.33V312.8c0-3.33,1.25-6.04,3.75-8.12
				c2.84-2.36,6.45-3.54,10.83-3.54c4.93,0,8.78,1.39,11.55,4.16c2.01,2.01,3.02,4.51,3.02,7.49v86.81c0,16.24-3.33,28.9-9.99,38
				c-2.78,3.75-6.49,7.46-11.14,11.14c-12.28,9.44-27,14.16-44.14,14.16c-19.5,0-35.64-5.97-48.4-17.9
				c-7.22-6.66-12.04-14.71-14.47-24.15c-1.53-6.11-2.29-13.18-2.29-21.24V312.8c0-4.44,2.08-7.7,6.25-9.78
				c2.57-1.25,5.38-1.87,8.43-1.87c3.68,0,6.94,0.94,9.79,2.81C165.06,306.04,166.65,308.99,166.65,312.8z"/>
			<path d="M323.11,324.98h-15.61c-2.29,0-4.23-0.76-5.83-2.29c-2.22-2.08-3.33-4.93-3.33-8.54c0-4.3,1.49-7.42,4.48-9.37
				c1.32-0.9,2.88-1.35,4.68-1.35h60.06c2.36,0,4.37,0.76,6.04,2.29c2.15,2.01,3.23,4.86,3.23,8.54c0,4.23-1.49,7.36-4.48,9.37
				c-1.32,0.9-2.91,1.35-4.79,1.35h-15.51v112.53h15.51c2.36,0,4.37,0.76,6.04,2.29c2.15,2.01,3.23,4.86,3.23,8.54
				c0,4.23-1.49,7.36-4.48,9.37c-1.32,0.9-2.91,1.35-4.79,1.35h-60.06c-2.29,0-4.23-0.76-5.83-2.29c-2.22-2.01-3.33-4.86-3.33-8.54
				c0-4.3,1.49-7.42,4.48-9.37c1.32-0.9,2.88-1.35,4.68-1.35h15.61V324.98z"/>
			<path d="M473.84,299.79c19.99,0,36.12,5.55,48.4,16.65c6.8,6.11,10.2,11.76,10.2,16.97c0,3.33-1.25,6.32-3.75,8.95
				c-3.05,3.19-6.66,4.79-10.83,4.79c-3.54,0-6.35-1.15-8.43-3.44c-0.21-0.21-1.08-1.28-2.6-3.23
				c-8.05-10.62-18.88-15.93-32.48-15.93c-10.76,0-20.02,3.64-27.79,10.93c-11.1,10.34-16.65,25.61-16.65,45.8
				c0,14.57,3.29,26.89,9.89,36.95c8.26,12.56,19.88,18.84,34.87,18.84c14.71,0,27.2-6.52,37.47-19.57
				c2.36-2.98,5.55-4.48,9.58-4.48c4.02,0,7.5,1.35,10.41,4.06c3.05,2.78,4.58,6.18,4.58,10.2c0,4.3-2.01,8.68-6.04,13.12
				c-13.46,14.85-32.1,22.28-55.9,22.28c-24.01,0-43.13-8.29-57.36-24.88c-12.42-14.43-18.63-33.24-18.63-56.42
				c0-25.12,7.36-45.32,22.07-60.58C434.31,306.8,451.98,299.79,473.84,299.79z"/>
			<path d="M593.44,391.29v38.72c0,2.57,1.28,3.85,3.85,3.85h74.43c2.84,0,5.21,1.01,7.08,3.02c2.22,2.43,3.33,5.62,3.33,9.58
				c0,5.41-1.84,9.2-5.52,11.35c-1.46,0.83-3.09,1.25-4.89,1.25H584.9c-13.81,0-20.71-6.9-20.71-20.71V324.15
				c0-13.81,6.9-20.71,20.71-20.71h83.59c2.5,0,4.68,0.83,6.56,2.5c2.57,2.43,3.85,5.73,3.85,9.89c0,5.14-1.84,8.78-5.52,10.93
				c-1.39,0.83-3.02,1.25-4.89,1.25h-71.2c-2.57,0-3.85,1.35-3.85,4.06v34.98h65.89c2.36,0,4.37,0.76,6.04,2.29
				c2.5,2.29,3.75,5.62,3.75,9.99c0,4.93-1.67,8.47-5,10.62c-1.32,0.9-2.92,1.35-4.79,1.35H593.44z"/>
		</g>
		<g>
			<circle class="st0" cx="194.43" cy="125.75" r="125.75"/>
			<circle class="st1" cx="194.43" cy="125.75" r="115.75"/>
			<g>
				<path class="st0" d="M100.84,150.43c-6.8,2.21-13.51-1.72-14.92-8.73c0,0-1.24-6.2-1.24-15.95c0-9.42,1.08-15.02,1.08-15.02
					c1.36-7.02,8.03-10.96,14.83-8.75l62.3,20.24c6.8,2.21,6.8,5.82,0,8.03L100.84,150.43z"/>
			</g>
			<g>
				<path class="st0" d="M142.43,44.13c-4.2-5.78-2.36-13.03,4.1-16.11l29.37-9.51c7.03-1.3,12.78,3.49,12.78,10.64v65.64
					c0,7.15-3.44,8.27-7.64,2.48L142.43,44.13z"/>
			</g>
			<g>
				<path class="st0" d="M104.27,90.56c-6.8-2.21-9.57-9.15-6.14-15.43l18.08-24.97c4.89-5.21,12.34-4.74,16.54,1.04l38.59,53.12
					c4.2,5.78,2.08,8.71-4.72,6.5L104.27,90.56z"/>
			</g>
			<g>
				<path class="st0" d="M200.68,29.18c0-7.15,5.75-11.91,12.77-10.59l29.24,9.61c6.44,3.1,8.28,10.37,4.07,16.15l-38.45,52.92
					c-4.2,5.78-7.64,4.67-7.64-2.48V29.18z"/>
			</g>
			<g>
				<path class="st0" d="M256.44,51.46c4.2-5.78,11.63-6.24,16.51-1.01l17.87,24.82c3.41,6.29,0.63,13.24-6.17,15.45l-61.9,20.11
					c-6.8,2.21-8.93-0.72-4.72-6.5L256.44,51.46z"/>
			</g>
			<g>
				<path class="st0" d="M188.68,222.35c0,7.15-5.75,11.95-12.79,10.66l-28.85-9.26c-6.47-3.05-8.32-10.27-4.12-16.06l38.11-52.46
					c4.2-5.78,7.64-4.67,7.64,2.48V222.35z"/>
			</g>
			<g>
				<path class="st0" d="M218.03,148.18c-4.2-5.78-2.08-8.71,4.72-6.5l61.56,20c6.8,2.21,9.53,9.14,6.08,15.4l-17.84,24.41
					c-4.91,5.2-12.37,4.72-16.57-1.07L218.03,148.18z"/>
			</g>
			<g>
				<path class="st0" d="M226.46,130.27c-6.8-2.21-6.8-5.82,0-8.03l61.84-20.09c6.8-2.21,13.47,1.73,14.82,8.75
					c0,0,1.06,5.49,1.06,14.86c0,9.7-1.22,15.8-1.22,15.8c-1.4,7.01-8.1,10.94-14.9,8.73L226.46,130.27z"/>
			</g>
			<g>
				<path class="st0" d="M133.2,200.67c-4.2,5.78-11.67,6.28-16.6,1.1l-18.04-24.56c-3.47-6.25-0.74-13.17,6.06-15.38l62-20.15
					c6.8-2.21,8.93,0.72,4.72,6.5L133.2,200.67z"/>
			</g>
			<g>
				<path class="st0" d="M200.68,157.72c0-7.15,3.44-8.27,7.64-2.48l37.95,52.24c4.2,5.78,2.36,13.03-4.1,16.1l-28.72,9.35
					c-7.03,1.32-12.78-3.45-12.78-10.6V157.72z"/>
			</g>
		</g>
		<path class="st0" d="M215.68,294.25c-1,13-6.72,16-15,16s-14-3-15-16c-1.02-13.22,15-32,15-32S216.7,281.03,215.68,294.25z"/>
		<path class="st0" d="M202.9,440.25c-49.21,0-37.21-68.67-37.21-103c3-5,8.03-10,12.05-10c7.96,0,16.81,5.33,23.89,10
			c6.06,4,12.36,11,19.06,11c9,0,18.76-17.26,19-11C241.68,390.25,245.68,440.25,202.9,440.25z"/>
	</g>
</g>
<g id="レイヤー_2">
</g>
</svg>
